<svg width="56" height="22" viewBox="0 0 56 22" fill="none" xmlns="http://www.w3.org/2000/svg">
<rect width="56" height="22" fill="#8D3131"/>
<path d="M13.7102 14.5455H11.3068C11.2898 14.3466 11.2443 14.1662 11.1705 14.0043C11.0994 13.8423 11 13.7031 10.8722 13.5866C10.7472 13.4673 10.5952 13.3764 10.4162 13.3139C10.2372 13.2486 10.0341 13.2159 9.80682 13.2159C9.40909 13.2159 9.07244 13.3125 8.79688 13.5057C8.52415 13.6989 8.31676 13.9759 8.17472 14.3366C8.03551 14.6974 7.96591 15.1307 7.96591 15.6364C7.96591 16.1705 8.03693 16.6179 8.17898 16.9787C8.32386 17.3366 8.53267 17.6065 8.8054 17.7884C9.07813 17.9673 9.40625 18.0568 9.78977 18.0568C10.0085 18.0568 10.2045 18.0298 10.3778 17.9759C10.5511 17.919 10.7017 17.8381 10.8295 17.733C10.9574 17.6278 11.0611 17.5014 11.1406 17.3537C11.223 17.2031 11.2784 17.0341 11.3068 16.8466L13.7102 16.8636C13.6818 17.233 13.5781 17.6094 13.3991 17.9929C13.2202 18.3736 12.9659 18.7259 12.6364 19.0497C12.3097 19.3707 11.9048 19.6293 11.4219 19.8253C10.9389 20.0213 10.3778 20.1193 9.73864 20.1193C8.9375 20.1193 8.21875 19.9474 7.58239 19.6037C6.94886 19.2599 6.44744 18.7543 6.07812 18.0866C5.71165 17.419 5.52841 16.6023 5.52841 15.6364C5.52841 14.6648 5.71591 13.8466 6.09091 13.1818C6.46591 12.5142 6.97159 12.0099 7.60795 11.669C8.24432 11.3253 8.95455 11.1534 9.73864 11.1534C10.2898 11.1534 10.7969 11.2287 11.2599 11.3793C11.723 11.5298 12.1293 11.75 12.4787 12.0398C12.8281 12.3267 13.1094 12.6804 13.3224 13.1009C13.5355 13.5213 13.6648 14.0028 13.7102 14.5455ZM17.1545 11.2727V20H14.7852V11.2727H17.1545ZM25.8285 11.2727V20H23.8512L20.6978 15.4148H20.6467V20H18.2773V11.2727H20.2887L23.391 15.8409H23.4592V11.2727H25.8285ZM26.9492 20V11.2727H33.239V13.1818H29.3185V14.6818H32.9151V16.5909H29.3185V18.0909H33.2219V20H26.9492ZM34.4141 11.2727H37.3629L39.3913 16.2159H39.4936L41.522 11.2727H44.4709V20H42.1527V14.9545H42.0845L40.1413 19.9318H38.7436L36.8004 14.9205H36.7322V20H34.4141V11.2727ZM47.8608 20H45.304L48.1847 11.2727H51.4233L54.304 20H51.7472L49.8381 13.6761H49.7699L47.8608 20ZM47.3835 16.5568H52.1903V18.3295H47.3835V16.5568Z" fill="white"/>
</svg>
